<?xml version="1.0" encoding="utf-8"?>
<!-- Generator: Adobe Illustrator 24.0.1, SVG Export Plug-In . SVG Version: 6.00 Build 0)  -->
<svg version="1.1" id="Layer_1" xmlns="http://www.w3.org/2000/svg" xmlns:xlink="http://www.w3.org/1999/xlink" x="0px" y="0px"
	 viewBox="0 0 1458.8 539.4" style="enable-background:new 0 0 1458.8 539.4;" xml:space="preserve">
<style type="text/css">
	.st0{fill:#112942;}
	.st1{fill:#EB9037;}
	.st2{fill:#BF6216;}
	.st3{fill:#FFFFFF;}
	.st4{opacity:0.3;}
	.st5{fill:#C6C6C6;}
	.st6{fill:#FF553E;}
</style>
<g>
	<g>
		<path class="st0" d="M1004.8,198.3c11,11.7,16.6,28.1,16.6,49.2c0,21.7-5.5,38.3-16.6,49.9c-11,11.6-26.7,17.4-47,17.4H933v72.7
			h-29.8V180.8h54.7C978.1,180.8,993.8,186.6,1004.8,198.3z M982.7,276.9c5.5-6.4,8.3-16.2,8.3-29.4c0-25.6-11.1-38.4-33.4-38.4H933
			v77.4h24.5C968.8,286.6,977.2,283.4,982.7,276.9z"/>
		<path class="st0" d="M1146.7,338.9c-1.6,16.5-7.1,29.4-16.7,38.4c-9.6,9.1-22.6,13.6-39.2,13.6c-16.4,0-29.3-5.1-38.7-15.4
			c-9.5-10.2-14.2-24.6-14.2-43.1V286c0-18.3,4.8-32.6,14.3-42.7c9.6-10.1,22.6-15.2,39.2-15.2c16.9,0,30.3,5.1,40,15.2
			c9.8,10.1,14.6,24.4,14.6,42.7v34.6h-79.5v11.8c0,10.4,2.1,18.2,6.4,23.3c4.2,5.1,10.4,7.7,18.5,7.7c8.3,0,14.4-1.9,18.5-5.8
			c4-3.8,6.6-10.1,7.8-18.8H1146.7z M1073.1,262.5c-4.3,5-6.5,12.8-6.5,23.2V299h51.1v-13.3c0-20.5-8.7-30.7-26-30.7
			C1083.7,254.9,1077.4,257.4,1073.1,262.5z"/>
		<path class="st0" d="M1244.5,362.5v26.9h-10.9c-15.4,0-27.4-4.6-36.2-13.9c-8.8-9.3-13.2-22-13.2-38.1v-79.5h-21.9v-26h21.9v-36.9
			h28.4v36.9h29v26h-29v79.8c0,8.5,1.8,14.7,5.5,18.8c3.6,4,9.3,6.1,17,6.1H1244.5z"/>
		<path class="st0" d="M1272.6,180.8h29.8v206.9h-29.8V180.8z"/>
		<path class="st0" d="M1343.5,180.8h51.4c20.1,0,35.8,5.7,47,17c11.2,11.3,16.8,27.1,16.8,47.4v77.4c0,20.5-5.6,36.5-16.8,47.9
			c-11.2,11.4-26.8,17.1-46.7,17.1h-51.7V180.8z M1395.2,359.3c10.6,0,18.9-3.2,24.7-9.5c5.8-6.3,8.7-15.6,8.7-27.8v-76.2
			c0-12-2.9-21.1-8.6-27.3c-5.7-6.2-14-9.3-24.8-9.3h-21.9v150.1H1395.2z"/>
	</g>
	<g>
		<g>
			<path class="st0" d="M374.3,443.3c121.5,0,231.8,35.8,312.5,93.9c-34.2-103.4-161.1-180.2-312.5-180.2S96,433.8,61.8,537.2
				C142.5,479.1,252.8,443.3,374.3,443.3z"/>
			<g>
				<g>
					<g>
						<path class="st1" d="M160.1,137.6c20.4-4.6,40.8-4.9,60.3-1.6"/>
					</g>
				</g>
				<g>
					<g>
						<path class="st1" d="M346,253.1l0.6,2.5c19.1,84.9-40.3,145.7-125.9,163.5c-83.8,17.4-160.3-14-179.1-97.4
							c0,0-32-121.6-26.6-196.2c0.9-12.6,14-20.4,25.4-15c21.1,9.9,40.3,22.1,55.2,39.3c5.6,6.5,14.9,8.2,22.4,4
							c12.9-7.2,27-12.7,42.1-16.1c15.1-3.4,30.2-4.5,44.9-3.5c8.6,0.6,16.2-5,18.5-13.3c6.1-21.9,18.2-41.1,33-59.2
							c8-9.7,23.2-8.3,29.4,2.7C322.8,129.5,346,253.1,346,253.1z"/>
					</g>
				</g>
				<path class="st2" d="M338.4,219.5l0.6,2.5c19.1,84.9-40.3,145.7-125.9,163.5C129.4,402.8,52.8,371.4,34,288c0,0-0.8-2.9-2-8.1
					c5.7,27.8,10.8,46.9,10.8,46.9c18.8,83.5,95.4,114.8,179.1,97.4c85.6-17.8,145-78.5,125.9-163.5l-0.6-2.5
					c0,0-3.7-19.5-10.4-47.1C337.9,216.5,338.4,219.5,338.4,219.5z"/>
				<g>
					<g>
						
							<ellipse transform="matrix(0.9756 -0.2196 0.2196 0.9756 -67.1775 52.8547)" class="st3" cx="204.2" cy="328.6" rx="55.7" ry="36.5"/>
					</g>
				</g>
				<g>
					<g>
						<path class="st0" d="M226.8,289.4c2.2,9.9-8.4,26.6-25.2,30.4c-16.9,3.8-33.6-6.8-35.8-16.7c-2.2-9.9,10.9-15.2,27.8-19
							C210.4,280.4,224.6,279.6,226.8,289.4z"/>
					</g>
				</g>
				<g>
					<g>
						
							<ellipse transform="matrix(0.9728 -0.2315 0.2315 0.9728 -61.9903 53.043)" class="st3" cx="195" cy="290.6" rx="15.4" ry="2.7"/>
					</g>
				</g>
				<g>
					<g>
						<path class="st0" d="M226.2,344.5c-7.4,1.7-14.3-0.8-19.2-3.6c-3.3,4.7-8.6,9.9-16.2,11.6c-8.8,1.8-17.8-1.8-26.8-10.8
							c-2.8-2.8-2.8-7.4,0-10.2c2.8-2.8,7.4-2.8,10.2,0c3.7,3.7,9,7.9,13.7,6.9c0,0,0.1,0,0.2,0c5.1-1.1,9-8.2,10-10.6
							c0.9-2.2,2.7-3.8,5.1-4.3c2.3-0.5,4.7,0.1,6.5,1.7c1.9,1.7,8.4,6.4,13.5,5.3c0.1,0,0.1,0,0.1,0c4.6-1.1,7.6-7.2,9.4-12.1
							c1.3-3.7,5.5-5.7,9.2-4.4c3.7,1.3,5.7,5.5,4.4,9.2c-4.3,12-10.9,19.1-19.6,21.3C226.4,344.4,226.3,344.4,226.2,344.5z"/>
					</g>
				</g>
				<g>
					<g>
						<path class="st0" d="M206.2,337.5c-3.9,0.9-7.7-1.6-8.6-5.4l-3.7-16.4c-0.9-3.9,1.6-7.7,5.4-8.6c3.9-0.9,7.7,1.6,8.6,5.4
							l3.7,16.4C212.5,332.7,210.1,336.6,206.2,337.5z"/>
					</g>
				</g>
				<g>
					<path class="st0" d="M84.5,283.8c-1,0.2-2.1,0.3-3.1,0.1c-4.3-0.8-7.3-4.9-6.5-9.3c3.1-17.3,13.1-29.5,26.9-32.6
						c13.8-3.1,28.1,3.6,38.3,17.9c2.6,3.6,1.7,8.6-1.9,11.2c-0.9,0.6-1.8,1.1-2.9,1.3c-3.2,0.7-6.4-0.5-8.3-3.2
						c-6.4-9-14.3-13.2-21.7-11.5c-7.4,1.7-12.8,8.9-14.7,19.7C90.1,280.6,87.7,283.1,84.5,283.8z"/>
				</g>
				<g>
					<path class="st0" d="M236.7,249.6c-1,0.2-2.1,0.3-3.1,0.1c-4.3-0.8-7.3-4.9-6.5-9.3c3.1-17.3,13.1-29.5,26.9-32.6
						c13.8-3.1,28.1,3.6,38.3,17.9c2.6,3.6,1.7,8.6-1.9,11.2c-0.9,0.6-1.8,1.1-2.9,1.3c-3.2,0.7-6.4-0.5-8.3-3.2
						c-6.4-9-14.3-13.2-21.7-11.5c-7.4,1.7-12.8,8.9-14.7,19.7C242.3,246.4,239.9,248.9,236.7,249.6z"/>
				</g>
				<g>
					<path class="st2" d="M44.7,147.1c0,0,29.5,11.4,42.2,36.8c0,0-27.7,7.7-39.7,24.5C47.3,208.5,39.2,179.4,44.7,147.1z"/>
				</g>
				<g>
					<path class="st2" d="M269.2,96.6c0,0-21.8,22.9-22.4,51.4c0,0,28.3-4.9,46.4,5.2C293.2,153.1,288,123.3,269.2,96.6z"/>
				</g>
				<g>
					<g>
						<path class="st0" d="M227.8,432.2c-1.4,0.3-2.8,0.6-4.2,0.9c-46,9.5-88.6,5.3-123.3-12.2c-37.6-19-62.8-52.1-72.7-96
							c-2-7.5-30.6-118.6-27.3-193.8c0.5-12.4,7.2-23.5,17.9-29.7c10.6-6.2,23.6-6.7,34.6-1.2c24.1,12.1,42.1,25.7,55.8,42.2
							c15-8.8,31.3-15.1,48.4-19c17.2-3.9,34.6-5.1,51.9-3.6c5.3-20.9,15.8-40.9,32.3-62.1c7.6-9.7,19.5-14.9,31.8-13.8
							c12.3,1.1,23.1,8.3,28.9,19.2c35.1,66.5,56.8,179.1,58.3,186.8l0.5,2.2c8.7,38.7,2.8,75.3-16.9,106
							C320.4,394.5,279.4,420.6,227.8,432.2z M34.9,125.4c-0.9,0.2-1.7,0.6-2.2,0.9c-1.1,0.6-3.5,2.5-3.7,6.2
							c-3.1,71.8,26.2,184.3,26.5,185.4c0,0.2,0.1,0.3,0.1,0.5c15.7,69.7,79.3,103.7,162.2,86.5c46-9.6,82-31.6,101.7-62.1
							c15.7-24.4,20.1-52.7,13.1-84.1l-0.6-2.5c0-0.2-0.1-0.3-0.1-0.5c-0.2-1.1-21.9-115.3-55.5-178.9c-1.7-3.3-4.8-3.9-6-4
							c-1.5-0.1-4.4,0.1-6.5,2.8c-17,21.7-26.3,41.5-29.2,62.3c-0.5,3.8-2.6,7.3-5.8,9.6c-3.1,2.3-7.1,3.2-10.9,2.6
							c-18.2-3.1-36.6-2.6-54.7,1.5c-18.1,4.1-34.9,11.5-50.1,22.1c-3.2,2.2-7.1,3.1-10.9,2.3c-3.8-0.7-7.2-3-9.3-6.2
							c-11.5-17.5-28.4-31.4-53.1-43.8C38,125.2,36.3,125.1,34.9,125.4z"/>
					</g>
				</g>
				<g>
					<g>
						<path class="st1" d="M356.7,304.1c19.8,12.5,22.5,43.7,6.1,69.6s-45.8,36.8-65.6,24.3c-19.8-12.5-14.6-38.7,1.8-64.6
							S337,291.6,356.7,304.1z"/>
					</g>
				</g>
				<g>
					<g>
						<path class="st1" d="M147.5,431c-12.5,19.8-43.7,22.5-69.6,6.1c-25.9-16.4-36.8-45.8-24.3-65.6c12.5-19.8,38.7-14.6,64.6,1.8
							C144.2,389.8,160.1,411.2,147.5,431z"/>
					</g>
				</g>
				<g class="st4">
					<g>
						<path class="st0" d="M92.3,414.4c-20.5-13-31.5-34-29.1-52c-3.7,2.1-7,5.1-9.6,9.2c-12.5,19.8-1.6,49.1,24.3,65.6
							c25.9,16.4,57.1,13.7,69.6-6.1c2.6-4.2,3.9-8.4,4.2-12.6C136.5,428.3,112.8,427.4,92.3,414.4z"/>
					</g>
				</g>
				<g>
					<g>
						<path class="st0" d="M71.9,446.7C40.7,427,28.2,390.6,44,365.5c14.9-23.5,44.8-24.1,80.2-1.7c35.4,22.4,47.7,49.8,32.8,73.2
							C141.3,462.1,103,466.4,71.9,446.7z M112.2,382.9c-11.2-7.1-38.5-21.9-49-5.3c-9,14.3,0.5,37.1,20.8,50
							c20.3,12.8,45,11.6,54-2.6C148.5,408.4,123.4,390,112.2,382.9z"/>
					</g>
				</g>
				<g>
					<g>
						<path class="st0" d="M372.4,379.8c-19.7,31.2-56.1,43.6-81.2,27.8c-23.5-14.9-24.1-44.8-1.7-80.2
							c22.4-35.4,49.8-47.7,73.2-32.8C387.8,310.4,392.2,348.6,372.4,379.8z M308.7,339.5c-7.1,11.2-21.9,38.5-5.3,49
							c14.3,9,37.1-0.5,50-20.8s11.6-45-2.6-54C334.1,303.2,315.8,328.2,308.7,339.5z"/>
					</g>
				</g>
				<g class="st4">
					<g>
						<path class="st0" d="M340.8,359.8c13-20.5,13.9-44.2,4-59.5c4.2,0.3,8.5,1.6,12.6,4.2c19.8,12.5,22.5,43.7,6.1,69.6
							c-16.4,25.9-45.8,36.8-65.6,24.3c-4.2-2.6-7.1-5.9-9.2-9.6C306.8,391.4,327.9,380.3,340.8,359.8z"/>
					</g>
				</g>
			</g>
			<g>
				<g>
					<g>
						<path class="st1" d="M599.3,137c20.5,4,39.3,12,55.8,22.8"/>
					</g>
				</g>
				<g class="st4">
					<g>
						<path class="st0" d="M729.5,283.9l-0.5,2.5c-16.8,85.4-95.7,117.1-181.1,98.8c-83.7-17.9-141.1-77.5-124.6-161.4
							c0,0,0.5-3,1.4-8.3c-6,27.7-9.1,47.3-9.1,47.3c-16.5,83.9,40.9,143.5,124.6,161.4c85.4,18.3,164.3-13.3,181.1-98.8l0.5-2.5
							c0,0,4.5-19.3,9.5-47.2C730.2,280.9,729.5,283.9,729.5,283.9z"/>
					</g>
				</g>
				<path class="st1" d="M815.5,105.8c-9.9-29.2-40.9-29.8-62.2-26.7c-21.2,3.1-40.6,19.3-62.1,43.4l0,0
					c-10.1,7.1-19.3,15.3-27.2,24.8c-5.5,6.6-14.7,8.6-22.3,4.7c-13-6.8-27.3-12-42.5-14.9c-15.2-3-30.3-3.6-45-2.2
					c-8.6,0.8-16.3-4.5-18.9-12.7c-2.8-9.1-6.7-17.8-11.4-26c-25.6-47.1-52.9-96.7-85.9-79.9c-34,17.3-74,47.8-75.4,80.4
					c-1.4,32.6-17.9,51.6,30.2,53c19.5,0.6,35.9-1.1,48.6-3.4c-16.2,56.3-25,111.4-25,111.4c-16.5,83.9,40.9,143.5,124.6,161.4
					c85.4,18.3,164.3-13.3,181.1-98.8l0.5-2.5c0,0,11.8-50.5,18.3-106.4c13.9,8.5,31,18.7,40.6,23.8c18.1,9.7,35.5-7.5,45.4-32.8
					S825.4,135,815.5,105.8z"/>
				<path class="st3" d="M726.7,274.7C658,249.9,621.3,149.2,621.3,149.2l-22.8-4.5l-22.8-4.5c0,0-72.1,79.3-145.1,76.3L414.5,272
					l7.7,66.7l67.1,67.3l55.2,13.6l56.2,8.3l87.5-36.9l32.4-58.9L726.7,274.7z"/>
				<g>
					<g>
						
							<ellipse transform="matrix(0.1928 -0.9812 0.9812 0.1928 120.8915 822.7083)" class="st5" cx="560.5" cy="337.9" rx="36.5" ry="55.7"/>
					</g>
				</g>
				<path class="st5" d="M727.8,283.5l-0.5,2.5c-16.8,85.4-95.7,117.1-181.1,98.8c-83.7-17.9-141.1-77.5-124.6-161.4
					c0,0,0.5-3,1.4-8.3c-6,27.7-9.1,47.3-9.1,47.3c-16.5,83.9,40.9,143.5,124.6,161.4c85.4,18.3,164.3-13.3,181.1-98.8l0.5-2.5
					c0,0,4.5-19.3,9.5-47.2C728.5,280.6,727.8,283.5,727.8,283.5z"/>
				<g>
					<g>
						<path class="st0" d="M597,311.1c-1.9,9.9-18.4,21-35.4,17.6s-28-19.8-26.1-29.7c1.9-9.9,16.1-9.5,33.1-6.2
							S599,301.2,597,311.1z"/>
					</g>
				</g>
				<g>
					<g>
						
							<ellipse transform="matrix(0.1808 -0.9835 0.9835 0.1808 170.4337 803.3212)" class="st3" cx="567.4" cy="299.4" rx="2.7" ry="15.4"/>
					</g>
				</g>
				<path class="st0" d="M525.6,337.9c0,0,3,42.6,23.7,49s45.7-37.1,45.7-37.1l-36.8-0.3L525.6,337.9z"/>
				<g>
					<g>
						<path class="st0" d="M574.2,361.2c-7.4-1.5-12.8-6.5-16.2-11c-4.9,2.9-11.8,5.6-19.5,4c-8.8-1.9-15.5-8.9-20.1-20.7
							c-1.4-3.7,0.4-7.9,4.1-9.3c3.7-1.4,7.9,0.4,9.3,4.1c1.9,4.8,5.1,10.8,9.7,11.8c0,0,0.1,0,0.2,0c5.1,1,11.5-3.8,13.4-5.6
							c1.7-1.6,4-2.4,6.4-1.9c2.3,0.5,4.3,2,5.2,4.2c1,2.3,5.1,9.3,10.3,10.3c0.1,0,0.1,0,0.2,0c4.7,0.8,9.9-3.5,13.5-7.3
							c2.7-2.9,7.3-3,10.2-0.3c2.9,2.7,3,7.3,0.3,10.2c-8.7,9.2-17.7,13.1-26.5,11.6C574.5,361.3,574.4,361.2,574.2,361.2z"/>
					</g>
				</g>
				<g>
					<g>
						<path class="st0" d="M558.8,346.7c-3.9-0.8-6.4-4.6-5.7-8.4l3.2-16.5c0.8-3.9,4.6-6.4,8.4-5.7c3.9,0.8,6.4,4.6,5.7,8.4
							l-3.2,16.5C566.4,345,562.7,347.5,558.8,346.7z"/>
					</g>
				</g>
				<g>
					<path class="st0" d="M483.6,246.9c-1-0.2-2-0.6-2.9-1.2c-3.7-2.5-4.7-7.4-2.2-11.1c9.8-14.6,23.9-21.7,37.8-18.9
						c13.9,2.7,24.3,14.6,27.8,31.8c0.9,4.3-1.9,8.6-6.2,9.4c-1,0.2-2.1,0.2-3.1,0c-3.2-0.6-5.6-3.1-6.3-6.3
						c-2.2-10.8-7.8-17.9-15.2-19.3c-7.5-1.5-15.3,3-21.4,12.1C490,246.2,486.7,247.6,483.6,246.9z"/>
				</g>
				<g>
					<path class="st0" d="M608.2,272.2c-1-0.2-2-0.6-2.9-1.2c-3.7-2.5-4.7-7.4-2.2-11.1c9.8-14.6,23.9-21.7,37.8-18.9
						c13.9,2.7,24.3,14.6,27.8,31.8c0.9,4.3-1.9,8.6-6.2,9.4c-1,0.2-2.1,0.2-3.1,0c-3.2-0.6-5.6-3.1-6.3-6.3
						c-2.2-10.8-7.8-17.9-15.2-19.3c-7.5-1.5-15.3,3-21.4,12.1C614.6,271.5,611.4,272.8,608.2,272.2z"/>
				</g>
				<path class="st0" d="M845.1,182.8c0.5-25.1-7-53.7-21.3-80.3c-6.6-12.2-14.5-21.8-23.6-28.4c-8.9-6.5-18.9-10.2-29.8-11
					c-26.1-2.1-56.4,12.4-89.9,43c-14.1,12.9-25.7,25.8-33,34.4c-22.4-12.6-39.8-16.5-48-18.1l0,0c-0.1,0-0.2,0-0.3-0.1
					c-0.1,0-0.2,0-0.3-0.1l0,0c-9.4-1.8-25.1-4.5-50.6-1.3c-3.5-10.7-9.3-27.1-17.5-44.3c-19.5-41-42-65.8-67-73.8
					c-10.4-3.3-21.1-3.7-31.7-1.1c-10.9,2.7-21.9,8.5-32.6,17.4c-23.3,19.2-41.1,42.8-50.1,66.2c-4.5,11.6-6.6,22.8-6.5,33.2
					c0.2,11.5,3.1,21.6,8.8,29.8c4.5,6.5,13.7,15.9,30.7,19.2c9.5,1.9,21.4,1.8,36.3-1.7c-0.4,1.2-0.8,2.4-1.1,3.4c0,0,0,0,0,0
					c-3.7,11.4-7.5,25.1-10.7,40.4c-5.1,24.5-7.2,47.8-6.4,69.2c1.1,27.4,7,51.9,17.8,72.8c21.7,42.3,62.1,69.6,120.1,81l0,0
					c0,0,0.1,0,0.1,0s0.1,0,0.1,0l0,0c58,11.4,105.9,1.5,142-29.5c17.8-15.3,32.6-35.7,44-60.7c8.9-19.5,15.7-41.9,20.3-66.5
					c2.9-15.3,4.5-29.5,5.4-41.4c0,0,0,0,0,0c0.1-1.1,0.2-2.3,0.3-3.6c12.4,8.9,23.5,13.4,33,15.3c17,3.3,29.1-1.9,35.7-6.2
					c8.4-5.5,15-13.6,19.5-24.3C842.7,206.4,844.9,195.2,845.1,182.8z M803.6,216.4c-9.5,6.2-28.8,2.3-55.2-24.6
					c-2.4-22.4-5.8-43.6-5.8-43.6l-22.7-1.5c0,0,1.9,10.7,2.7,29.5l0,0c0.2,6.3,0.4,20.7,0.2,30.1c0,10.6-0.6,36.1-6.2,65.4
					c-6.5,34.4-21.3,81.5-54.8,110.2c-29.2,25-68.8,32.8-117.9,23.1l-0.7,3.2l0.6-3.2c-49.1-9.6-82.9-31.9-100.4-66
					c-20.2-39.3-16-88.4-9-122.8c6-29.3,15.1-53.1,19.1-62.9c3.4-8.8,9-22,11.6-27.7l0,0c7.9-17.1,13.7-26.3,13.7-26.3l-21.6-7.2
					c0,0-11.2,18.3-21.8,38.2c-34.6,14.9-54,11.2-60.4,1.9c-5.3-7.7-5-21.4,0.8-36.7c7.3-19,22.1-38.3,41.7-54.5
					c13.6-11.2,25.9-14.9,37.6-11.1c8.9,2.8,17.9,9.9,26.9,20.9c7.9,9.7,15.6,22.4,22.8,37.6c12.7,26.6,19.6,51.9,19.6,52.1
					l3.4,12.7l12.9-2.4c31.3-5.8,49.6-1.6,53.2-0.6l0.2-0.9l-0.2,0.9c3.7,0.5,22.3,3.5,49,20.7l11.1,7.1l8-10.5
					c0.2-0.2,16.1-21,37.9-40.8c12.5-11.3,24.4-20.1,35.4-26.2c12.5-6.8,23.5-9.9,32.8-9.2c12.2,1,22.2,9,30.6,24.5
					c12,22.4,18.4,45.9,18,66.2C816.3,198.5,811.4,211.3,803.6,216.4z"/>
				<g>
					<g>
						<g>
							<path class="st1" d="M698.1,376.5c13.1,19.4,3,49.1-22.5,66.2c-25.5,17.1-56.7,15.2-69.8-4.2c-13.1-19.4,2.2-41.3,27.7-58.4
								S685.1,357.1,698.1,376.5z"/>
						</g>
					</g>
					<g>
						<g>
							<path class="st1" d="M469.7,399.2c-19.4,13.1-49.1,3-66.2-22.5s-15.2-56.7,4.2-69.8s41.3,2.2,58.4,27.7
								S489.2,386.1,469.7,399.2z"/>
						</g>
					</g>
					<g class="st4">
						<g>
							<path class="st0" d="M425.8,361.7c-13.5-20.1-15.1-43.8-5.6-59.4c-4.2,0.4-8.4,1.8-12.5,4.6c-19.4,13.1-21.3,44.3-4.2,69.8
								c17.1,25.5,46.7,35.6,66.2,22.5c4.1-2.7,7-6.1,9-9.8C460.7,392.3,439.4,381.8,425.8,361.7z"/>
						</g>
					</g>
					<g>
						<g>
							<path class="st0" d="M394.1,383c-20.6-30.6-17.3-69,7.3-85.5c23.1-15.5,50.8-4,74.1,30.8c23.3,34.8,23.5,64.8,0.5,80.3
								C451.4,425.1,414.7,413.6,394.1,383z M456.8,340.9c-7.4-11.1-26.4-35.6-42.7-24.6c-14,9.4-14.5,34.2-1.1,54.1
								c13.4,19.9,36.5,28.8,50.5,19.4C479.7,378.8,464.2,351.9,456.8,340.9z"/>
						</g>
					</g>
					<g>
						<g>
							<path class="st0" d="M681.9,452.1c-30.6,20.6-69,17.3-85.5-7.3c-15.5-23.1-4-50.8,30.8-74.1c34.8-23.3,64.8-23.5,80.3-0.5
								C724,394.8,712.6,431.5,681.9,452.1z M639.9,389.5c-11.1,7.4-35.6,26.4-24.6,42.7c9.4,14,34.2,14.5,54.1,1.1
								c19.9-13.4,28.8-36.5,19.4-50.5C677.8,366.5,650.9,382,639.9,389.5z"/>
						</g>
					</g>
					<g class="st4">
						<g>
							<path class="st0" d="M661.1,421.1c20.1-13.5,30.6-34.9,27.7-52.8c3.8,2,7.1,4.9,9.8,9c13.1,19.4,3,49.1-22.5,66.2
								c-25.5,17.1-56.7,15.2-69.8-4.2c-2.7-4.1-4.2-8.3-4.6-12.5C617.3,436.2,641,434.6,661.1,421.1z"/>
						</g>
					</g>
				</g>
				<path class="st2" d="M446.1,93.9c0,0-12.7,22-15.3,26.8c-2.6,4.8-23.7,11.5-35.1,10.1s11.9-38,28.6-43.4
					C440.9,82,443.3,96.4,446.1,93.9z"/>
				<path class="st2" d="M752.7,154.2c0,0,3.4,25.2,4,30.6c0.6,5.4,17.6,19.6,28.7,22.6c11.1,3,3.3-39.7-10-51
					C762,145.1,754.3,157.5,752.7,154.2z"/>
			</g>
			<g>
				<path class="st6" d="M271.6,519.3c2.9-4,6.6-9.4,10.9-16c7.9-12,13.4-21.4,16.1-28l0-0.1c4.9-11.2,6.2-21.3,4-29.9
					c-1.6-6.3-4.9-11.4-9.8-15.1l-0.8-0.6l-0.8-0.5c-7-3.8-14.4-4.9-21.4-3.2c-11,2.8-18.9,11.8-24.9,21.9c-10-6-21.3-10.2-32.3-7.4
					c-7,1.8-13,6.3-17.3,12.9l-0.5,0.8l-0.4,0.9c-2.5,5.7-3,11.7-1.5,18c2.2,8.7,8.2,16.9,17.8,24.5l0,0
					c5.5,4.4,14.8,10.1,27.5,16.9c6.9,3.7,12.6,6.7,17.1,8.8l9.7,4.6L271.6,519.3z"/>
				<path class="st0" d="M251.7,531.5c-4.6-2.2-10.5-5.3-17.5-9c-13.2-7.1-22.9-13.1-28.9-17.8c-11.3-8.8-18.3-18.7-21-29.4
					c-2.1-8.3-1.4-16.3,2-23.9l0.7-1.5l0.9-1.4c5.6-8.7,13.4-14.5,22.7-16.8c9.7-2.5,20.1-1,31.5,4.3c7.5-10.1,15.9-16.3,25.6-18.7
					c9.3-2.4,19-1,28,4l1.4,0.8l1.3,1c6.6,5,11,11.8,13.1,20.1c2.7,10.7,1.2,22.7-4.5,35.8l0,0.1c-3,7-8.7,16.9-16.9,29.3
					c-4.4,6.7-8.1,12.2-11.2,16.3l-10.8,14.8L251.7,531.5z M264.3,513.9c2.8-3.9,6.4-9.1,10.7-15.6c9.5-14.4,13.6-22.4,15.4-26.5
					l0.1-0.2c4-9.3,5.2-17.4,3.5-24c-1.1-4.3-3.2-7.6-6.6-10.2l-0.5-0.3c-4.9-2.7-10-3.5-14.8-2.3c-7,1.8-13.3,7.5-19.3,17.7
					l-4.6,7.8l-7.8-4.7c-10.1-6.1-18.4-8.2-25.4-6.4c-4.8,1.2-8.9,4.3-11.9,9l-0.3,0.5c-1.7,3.8-2,7.8-0.9,12.1
					c1.7,6.7,6.6,13.3,14.7,19.6c3.5,2.8,10.9,7.8,26.2,16.1c6.7,3.6,12.3,6.5,16.7,8.6l2.9,1.4L264.3,513.9L264.3,513.9z"/>
			</g>
			<g>
				<path class="st6" d="M494.3,519.3c-2.9-4-6.6-9.4-10.9-16c-7.9-12-13.4-21.4-16.1-28l0-0.1c-4.9-11.2-6.2-21.3-4-29.9
					c1.6-6.3,4.9-11.4,9.8-15.1l0.8-0.6l0.8-0.5c7-3.8,14.4-4.9,21.4-3.2c11,2.8,18.9,11.8,24.9,21.9c10-6,21.3-10.2,32.3-7.4
					c7,1.8,13,6.3,17.3,12.9l0.5,0.8l0.4,0.9c2.5,5.7,3,11.7,1.5,18c-2.2,8.7-8.2,16.9-17.8,24.5l0,0c-5.5,4.4-14.8,10.1-27.5,16.9
					c-6.9,3.7-12.6,6.7-17.1,8.8l-9.7,4.6L494.3,519.3z"/>
				<path class="st0" d="M497.8,539.4L487,524.6c-3-4.1-6.8-9.6-11.2-16.3C467.6,495.9,462,486,459,479l0-0.1
					c-5.7-13.1-7.2-25.1-4.5-35.8c2.1-8.3,6.5-15.1,13.1-20.1l1.3-1l1.4-0.8c9-5,18.7-6.4,28-4c9.7,2.5,18.2,8.6,25.6,18.7
					c11.4-5.4,21.7-6.8,31.5-4.3c9.3,2.4,17.2,8.2,22.7,16.8l0.9,1.4l0.7,1.5c3.4,7.6,4.1,15.6,2,23.9c-2.7,10.7-9.8,20.5-21,29.4
					c-5.9,4.7-15.6,10.7-28.9,17.8c-7,3.8-12.8,6.8-17.5,9L497.8,539.4z M501.6,513.9l1.9,2.6l2.9-1.4c4.4-2.1,10-5,16.7-8.6
					c15.3-8.2,22.7-13.3,26.2-16.1c8.1-6.4,13.1-13,14.7-19.6c1.1-4.3,0.8-8.2-0.9-12.1l-0.3-0.5c-3-4.7-7.1-7.8-11.9-9
					c-7-1.8-15.3,0.3-25.4,6.4l-7.8,4.7l-4.6-7.8c-6-10.1-12.3-15.9-19.3-17.7c-4.8-1.2-9.9-0.4-14.8,2.3l-0.5,0.3
					c-3.3,2.6-5.5,5.9-6.6,10.2c-1.7,6.7-0.5,14.7,3.5,24l0.1,0.2c1.8,4.1,5.9,12.1,15.4,26.5C495.2,504.8,498.8,510.1,501.6,513.9
					L501.6,513.9z"/>
			</g>
		</g>
		<path class="st6" d="M570.6,364.3c0,0-10.4,15.2-17.4,12.3c-7-3-12.9-18.4-12.9-18.4S562.9,353.3,570.6,364.3z"/>
	</g>
</g>
</svg>
